<svg width="130" height="94" viewBox="0 0 130 94" fill="none" xmlns="http://www.w3.org/2000/svg">
<circle cx="59.8301" cy="47" r="45" stroke="white" stroke-width="4"/>
<path d="M14.8299 43C0.829906 56 -12.5002 88 47.9998 73.5" stroke="white" stroke-width="4" stroke-linecap="round"/>
<path d="M90.355 37.5517L67.7396 23.6877C67.6366 23.6246 67.5182 23.5912 67.3974 23.5912L62.3134 23.5912C61.702 23.5912 61.4241 24.3548 61.8926 24.7477L82.288 41.8535C82.4795 42.0142 82.7459 42.0518 82.9744 41.9503L90.2784 38.7085C90.7606 38.4945 90.8048 37.8274 90.355 37.5517Z" fill="white" stroke="white" stroke-width="0.727583"/>
<path d="M71.1251 51.4796L59.7078 45.4539C59.5577 45.3746 59.3827 45.3568 59.2196 45.4041L50.1575 48.0351C49.6279 48.1888 49.5139 48.8884 49.9674 49.2023L62.1484 57.6354C62.3609 57.7825 62.6401 57.7909 62.861 57.6567L71.1593 52.6185C71.5941 52.3545 71.575 51.7171 71.1251 51.4796Z" fill="white" stroke="white" stroke-width="0.727583"/>
<path d="M125.154 23.8277L78.1676 58.0713L66.2806 60.5603L61.6206 57.2318L118.972 15.3531C121.277 13.6699 124.505 14.139 126.235 16.4087C128.019 18.7475 127.531 22.0954 125.154 23.8277Z" fill="white" stroke="white" stroke-width="0.727583"/>
</svg>
