<svg width="130" height="94" viewBox="0 0 130 94" fill="none" xmlns="http://www.w3.org/2000/svg">
<path d="M30 14.5C32.8333 15 38.4 16.4 38 18C37.5 20 32.5 21.5 36.5 27C40.5 32.5 41 27.5 45 34C49 40.5 28.5 50.5 24.5 49C21.3 47.8 19.5 51.1667 19 53L23 55.5C27.1667 56.6667 35.3 59.9 34.5 63.5C33.5 68 28.5 70 34.5 72C40.5 74 49.5 80.5 50.5 85.5C51.3 89.5 56.8333 90.8333 59.5 91M73 5.5C68.8333 5.83333 59.5 7.3 55.5 10.5C50.5 14.5 49.5 27 52.5 29.5C55.5 32 55 33.5 60.5 35C66 36.5 70.5 44.5 73 45C75 45.4 83.8333 47.8333 88 49L103 41M97 70.5C93.1667 69.1667 85.6 66.2 86 65C86.5 63.5 80.5 58 86 55.5C91.5 53 95.5 53 100.5 49C104.5 45.8 104.667 44.8333 104.5 43.5" stroke="white" stroke-width="4" stroke-linecap="round"/>
<circle cx="59.8301" cy="47" r="45" stroke="white" stroke-width="4"/>
<path d="M14.8299 43C0.829906 56 -12.5002 88 47.9998 73.5" stroke="white" stroke-width="4" stroke-linecap="round"/>
<path d="M90.355 37.5517L67.7396 23.6877C67.6366 23.6246 67.5182 23.5912 67.3974 23.5912L62.3134 23.5912C61.702 23.5912 61.4241 24.3548 61.8926 24.7477L82.288 41.8535C82.4795 42.0142 82.7459 42.0518 82.9744 41.9503L90.2784 38.7085C90.7606 38.4945 90.8048 37.8274 90.355 37.5517Z" fill="white" stroke="white" stroke-width="0.727583"/>
<path d="M71.1251 51.4796L59.7078 45.4539C59.5577 45.3746 59.3827 45.3568 59.2196 45.4041L50.1575 48.0351C49.6279 48.1888 49.5139 48.8884 49.9674 49.2023L62.1484 57.6354C62.3609 57.7825 62.6401 57.7909 62.861 57.6567L71.1593 52.6185C71.5941 52.3545 71.575 51.7171 71.1251 51.4796Z" fill="white" stroke="white" stroke-width="0.727583"/>
<path d="M125.154 23.8277L78.1676 58.0713L66.2806 60.5603L61.6206 57.2318L118.972 15.3531C121.277 13.6699 124.505 14.139 126.235 16.4087C128.019 18.7475 127.531 22.0954 125.154 23.8277Z" fill="white" stroke="white" stroke-width="0.727583"/>
</svg>
